<svg width="228" height="98" viewBox="0 0 228 98" fill="none" xmlns="http://www.w3.org/2000/svg">
<g clip-path="url(#clip0_406_119)">
<path d="M110.235 18.7646L110.235 18.7647C110.919 19.4483 110.919 20.5516 110.235 21.2353L110.235 21.2353L95.2376 36.2353C94.554 36.9189 93.4461 36.9189 92.7626 36.2353C92.0791 35.5517 92.0791 34.4483 92.7626 33.7646L92.7626 33.7646L105.991 20.5302L106.521 19.9999L105.991 19.4697L92.7626 6.23771C92.7626 6.2377 92.7626 6.23769 92.7626 6.23769C92.0792 5.55408 92.0791 4.44622 92.7623 3.76252C92.7624 3.76249 92.7624 3.76245 92.7624 3.76242C92.7625 3.76237 92.7625 3.76232 92.7626 3.76226C93.4461 3.07945 94.5541 3.07945 95.2378 3.76248C95.2378 3.76251 95.2378 3.76253 95.2379 3.76256L110.235 18.7646ZM134 33.25C134.969 33.25 135.75 34.0314 135.75 35C135.75 35.9686 134.969 36.75 134 36.75H111.5C110.531 36.75 109.75 35.9686 109.75 35C109.75 34.0314 110.531 33.25 111.5 33.25H134Z" stroke="#3294F8" stroke-width="1.5"/>
</g>
<path d="M14.4844 78.2695V85.7578C13.375 86.7734 11.1289 87.2812 7.74609 87.2812C7.08203 87.2812 6.49609 87.2539 5.98828 87.1992C5.48828 87.1445 5.02734 87.0742 4.60547 86.9883C4.19141 86.9023 3.83594 86.7578 3.53906 86.5547C3.24219 86.3438 2.98047 86.1328 2.75391 85.9219C2.52734 85.7109 2.34375 85.4062 2.20312 85.0078C2.0625 84.6016 1.94531 84.2109 1.85156 83.8359C1.76562 83.4609 1.69922 82.957 1.65234 82.3242C1.61328 81.6914 1.58594 81.0859 1.57031 80.5078C1.55469 79.9297 1.54688 79.1875 1.54688 78.2812C1.54688 77.5078 1.55078 76.8477 1.55859 76.3008C1.57422 75.7539 1.60156 75.1953 1.64062 74.625C1.6875 74.0547 1.74609 73.582 1.81641 73.207C1.89453 72.8242 1.99609 72.4414 2.12109 72.0586C2.25391 71.668 2.40625 71.3555 2.57812 71.1211C2.75 70.8789 2.96484 70.6406 3.22266 70.4062C3.48047 70.1719 3.76562 69.9922 4.07812 69.8672C4.39844 69.7422 4.76953 69.6289 5.19141 69.5273C5.61328 69.4258 6.07422 69.3594 6.57422 69.3281C7.07422 69.2891 7.64062 69.2695 8.27344 69.2695C8.3125 69.2695 8.37109 69.2695 8.44922 69.2695C8.99609 69.2695 9.41016 69.2734 9.69141 69.2812C9.97266 69.2891 10.3516 69.3203 10.8281 69.375C11.3125 69.4219 11.6836 69.5 11.9414 69.6094C12.1992 69.7109 12.4961 69.8672 12.832 70.0781C13.168 70.2812 13.418 70.5352 13.582 70.8398C13.7461 71.1367 13.8906 71.5156 14.0156 71.9766C14.1406 72.4375 14.2031 72.9688 14.2031 73.5703C14.2031 73.7109 14.1953 73.9062 14.1797 74.1562L12.082 74.5547L11.9531 72.2461C11.9375 71.7461 11.6523 71.4258 11.0977 71.2852C10.543 71.1367 9.49219 71.0625 7.94531 71.0625C6.89062 71.0625 6.09375 71.1289 5.55469 71.2617C5.01562 71.3867 4.64062 71.582 4.42969 71.8477C4.21875 72.1133 4.08984 72.5078 4.04297 73.0312C3.97266 74.6328 3.9375 76.2734 3.9375 77.9531C3.9375 79.6406 3.97266 81.2812 4.04297 82.875C4.08203 83.7188 4.14844 84.2656 4.24219 84.5156C4.39062 84.8984 4.73047 85.1562 5.26172 85.2891C5.76172 85.4141 6.63281 85.4766 7.875 85.4766C10.5469 85.4766 12.0273 85.2969 12.3164 84.9375C12.3086 84.1328 12.3047 82.5 12.3047 80.0391H9.35156L9.15234 78.2695H14.4844ZM20.25 87H17.9414V74.1445H20.25V87ZM20.25 69.1758V71.2031H17.9414V69.1758H20.25ZM29.0508 85.3711L29.0039 87.0117C28.3477 87.1211 27.7539 87.1758 27.2227 87.1758C26.6523 87.1758 26.1797 87.1133 25.8047 86.9883C25.4375 86.8633 25.1602 86.6641 24.9727 86.3906C24.7852 86.1172 24.6562 85.8164 24.5859 85.4883C24.5156 85.1523 24.4805 84.7266 24.4805 84.2109V75.457H22.7344V74.1445H24.4805V70.4883L26.7773 70.3008V74.1445H29.1445V75.457H26.7773V83.4258C26.7773 84.2695 26.8164 84.8164 26.8945 85.0664C26.9805 85.3164 27.207 85.4414 27.5742 85.4414C27.9336 85.4414 28.4258 85.418 29.0508 85.3711ZM44.7656 87H42.3867V78.9844H34.582V87H32.2031V69.5391H34.582V77.1328H42.3867V69.5391H44.7656V87ZM58.6641 87.0117H56.5312L56.3203 85.3594C56.1172 85.9766 55.6719 86.4336 54.9844 86.7305C54.3047 87.0273 53.4727 87.1758 52.4883 87.1758C51.8164 87.1758 51.25 87.1094 50.7891 86.9766C50.3281 86.8438 49.9414 86.6523 49.6289 86.4023C49.3242 86.1445 49.0859 85.7891 48.9141 85.3359C48.75 84.875 48.6328 84.3633 48.5625 83.8008C48.5 83.2305 48.4688 82.5234 48.4688 81.6797V74.1445H50.7773V81.6094C50.7773 81.7812 50.7734 82.0156 50.7656 82.3125C50.7656 82.6016 50.7656 82.8047 50.7656 82.9219C50.7656 83.3359 50.7734 83.6602 50.7891 83.8945C50.8047 84.1289 50.8438 84.3594 50.9062 84.5859C50.9766 84.8125 51.0664 84.9805 51.1758 85.0898C51.2852 85.1914 51.4492 85.2852 51.668 85.3711C51.8867 85.457 52.1367 85.5117 52.418 85.5352C52.707 85.5586 53.0742 85.5703 53.5195 85.5703C54.0195 85.5703 54.4453 85.5352 54.7969 85.4648C55.1484 85.3945 55.4258 85.3047 55.6289 85.1953C55.832 85.0781 55.9844 84.9219 56.0859 84.7266C56.1953 84.5312 56.2656 84.3398 56.2969 84.1523C56.3281 83.9648 56.3438 83.7305 56.3438 83.4492C56.3438 83.3555 56.3398 83.2031 56.332 82.9922C56.332 82.7812 56.332 82.6211 56.332 82.5117V74.1445H58.6641V87.0117ZM72.8555 79.8398C72.8555 80.4336 72.8516 80.9258 72.8438 81.3164C72.8359 81.707 72.8203 82.1328 72.7969 82.5938C72.7734 83.0547 72.7383 83.4336 72.6914 83.7305C72.6445 84.0195 72.582 84.332 72.5039 84.668C72.4258 84.9961 72.3281 85.2617 72.2109 85.4648C72.0938 85.668 71.9531 85.875 71.7891 86.0859C71.625 86.2969 71.4336 86.4609 71.2148 86.5781C70.9961 86.6953 70.7461 86.8047 70.4648 86.9062C70.1836 87.0078 69.8672 87.0781 69.5156 87.1172C69.1641 87.1562 68.7734 87.1758 68.3438 87.1758C66.2969 87.1758 65.0508 86.5781 64.6055 85.3828L64.3945 87H62.2852V69.1992L64.5938 69.0117V75.5625C64.8516 74.9531 65.2656 74.5039 65.8359 74.2148C66.4062 73.9258 67.1797 73.7812 68.1562 73.7812C68.6875 73.7812 69.1641 73.8164 69.5859 73.8867C70.0156 73.9492 70.3867 74.0547 70.6992 74.2031C71.0195 74.3516 71.2969 74.5195 71.5312 74.707C71.7656 74.8867 71.9609 75.1211 72.1172 75.4102C72.2734 75.6914 72.3984 75.9766 72.4922 76.2656C72.5938 76.5547 72.6719 76.9062 72.7266 77.3203C72.7812 77.7266 72.8164 78.1172 72.832 78.4922C72.8477 78.8672 72.8555 79.3164 72.8555 79.8398ZM70.5469 78.082C70.5469 77.7461 70.543 77.4961 70.5352 77.332C70.5352 77.1602 70.5195 76.9609 70.4883 76.7344C70.4648 76.5078 70.4297 76.3477 70.3828 76.2539C70.3359 76.1602 70.2617 76.0508 70.1602 75.9258C70.0664 75.793 69.9492 75.7031 69.8086 75.6562C69.6758 75.6094 69.5 75.5625 69.2812 75.5156C69.0703 75.4609 68.832 75.4297 68.5664 75.4219C68.3008 75.4062 67.9805 75.3984 67.6055 75.3984C66.8164 75.3984 66.1992 75.457 65.7539 75.5742C65.3164 75.6836 65 75.8711 64.8047 76.1367C64.6641 76.4023 64.5938 77.0039 64.5938 77.9414V83.8477C64.5938 84.4883 64.8203 84.9375 65.2734 85.1953C65.7266 85.4453 66.5078 85.5703 67.6172 85.5703C68.7188 85.5703 69.4766 85.4727 69.8906 85.2773C70.3359 85.1211 70.5586 84.332 70.5586 82.9102L70.5469 78.082ZM92.7422 75.2344C92.7422 75.9453 92.7031 76.5781 92.625 77.1328C92.5469 77.6875 92.4414 78.1641 92.3086 78.5625C92.1836 78.9531 92.0078 79.2891 91.7812 79.5703C91.5625 79.8516 91.3281 80.0781 91.0781 80.25C90.8359 80.4219 90.5391 80.5586 90.1875 80.6602C89.8438 80.7539 89.5 80.8164 89.1562 80.8477C88.8203 80.8789 88.4258 80.8945 87.9727 80.8945H83.3203V87H80.9531V69.5391H87.2812C88.0078 69.5391 88.6211 69.5703 89.1211 69.6328C89.6289 69.6875 90.0977 69.793 90.5273 69.9492C90.957 70.1055 91.3008 70.3164 91.5586 70.582C91.8164 70.8477 92.0391 71.1953 92.2266 71.625C92.4141 72.0547 92.543 72.5625 92.6133 73.1484C92.6914 73.7266 92.7344 74.4219 92.7422 75.2344ZM90.375 75.1055C90.3672 74.543 90.3516 74.0859 90.3281 73.7344C90.3047 73.3828 90.2578 73.0508 90.1875 72.7383C90.125 72.4258 90.0391 72.1875 89.9297 72.0234C89.8281 71.8594 89.6836 71.7188 89.4961 71.6016C89.3164 71.4766 89.1016 71.3945 88.8516 71.3555C88.6094 71.3164 88.3047 71.2969 87.9375 71.2969H83.3203V79.125H87.457C88.0664 79.125 88.5625 79.0742 88.9453 78.9727C89.3281 78.8711 89.625 78.7031 89.8359 78.4688C90.0547 78.2266 90.1992 77.9453 90.2695 77.625C90.3477 77.3047 90.3867 76.8906 90.3867 76.3828C90.3867 76.2578 90.3828 76.0547 90.375 75.7734C90.375 75.4922 90.375 75.2695 90.375 75.1055ZM105.422 80.3906C104.484 80.4844 103.902 80.5391 103.676 80.5547H97.2891C97.2969 81.6875 97.3281 82.9297 97.3828 84.2812C97.4219 84.8047 97.6445 85.1523 98.0508 85.3242C98.4648 85.4883 99.2656 85.5703 100.453 85.5703C100.898 85.5703 101.281 85.5547 101.602 85.5234C101.922 85.4844 102.18 85.4219 102.375 85.3359C102.578 85.2422 102.734 85.1562 102.844 85.0781C102.961 84.9922 103.047 84.8633 103.102 84.6914C103.156 84.5117 103.191 84.3633 103.207 84.2461C103.223 84.1211 103.238 83.9375 103.254 83.6953C103.27 83.4453 103.289 83.2422 103.312 83.0859L105.105 83.4141C105.09 83.9609 105.051 84.4258 104.988 84.8086C104.926 85.1836 104.82 85.5156 104.672 85.8047C104.523 86.0938 104.348 86.3242 104.145 86.4961C103.941 86.6602 103.668 86.7969 103.324 86.9062C102.98 87.0156 102.602 87.0859 102.188 87.1172C101.773 87.1562 101.262 87.1758 100.652 87.1758C99.8711 87.1758 99.1914 87.1289 98.6133 87.0352C98.0352 86.9492 97.5391 86.8398 97.125 86.707C96.7188 86.5742 96.3828 86.3594 96.1172 86.0625C95.8516 85.7578 95.6406 85.4688 95.4844 85.1953C95.3359 84.9219 95.2266 84.5195 95.1562 83.9883C95.0859 83.457 95.0391 82.9766 95.0156 82.5469C95 82.1094 94.9922 81.5078 94.9922 80.7422C94.9922 79.6641 95.0039 78.8242 95.0273 78.2227C95.0586 77.6211 95.1367 77.0195 95.2617 76.418C95.3867 75.8086 95.5547 75.3672 95.7656 75.0938C95.9766 74.8203 96.2891 74.5664 96.7031 74.332C97.1172 74.0977 97.6055 73.9492 98.168 73.8867C98.7305 73.8164 99.4453 73.7812 100.312 73.7812C100.914 73.7812 101.434 73.8008 101.871 73.8398C102.309 73.8711 102.711 73.9414 103.078 74.0508C103.445 74.1602 103.746 74.2852 103.98 74.4258C104.223 74.5664 104.434 74.7734 104.613 75.0469C104.801 75.3203 104.941 75.6055 105.035 75.9023C105.137 76.1914 105.219 76.5781 105.281 77.0625C105.344 77.5469 105.383 78.0391 105.398 78.5391C105.414 79.0312 105.422 79.6484 105.422 80.3906ZM97.3008 79.3242H103.113C103.098 78.3242 103.059 77.4102 102.996 76.582C102.965 76.1055 102.758 75.7891 102.375 75.6328C102 75.4688 101.309 75.3867 100.301 75.3867C99.1836 75.3867 98.4766 75.4492 98.1797 75.5742C98.0469 75.6133 97.9297 75.6836 97.8281 75.7852C97.7344 75.8789 97.6562 76.0156 97.5938 76.1953C97.5312 76.375 97.4805 76.543 97.4414 76.6992C97.4102 76.8555 97.3828 77.0742 97.3594 77.3555C97.3438 77.6289 97.332 77.8438 97.3242 78C97.3164 78.1484 97.3086 78.3789 97.3008 78.6914C97.3008 79.0039 97.3008 79.2148 97.3008 79.3242ZM114.293 73.8516L114.199 75.8086C113.902 75.7695 113.621 75.75 113.355 75.75C112.801 75.75 112.352 75.8047 112.008 75.9141C111.664 76.0234 111.402 76.2109 111.223 76.4766C111.051 76.7422 110.934 77.0469 110.871 77.3906C110.816 77.7266 110.789 78.1797 110.789 78.75C110.789 79.0703 110.801 79.5391 110.824 80.1562C110.855 80.7734 110.871 81.2148 110.871 81.4805V87H108.562V74.1445H110.66L110.895 75.5859C111.137 75.0234 111.504 74.5898 111.996 74.2852C112.488 73.9727 113.078 73.8164 113.766 73.8164C113.938 73.8164 114.113 73.8281 114.293 73.8516ZM126.27 83.4375C126.27 84.1875 126.188 84.8047 126.023 85.2891C125.859 85.7656 125.586 86.1445 125.203 86.4258C124.828 86.707 124.367 86.9023 123.82 87.0117C123.281 87.1211 122.598 87.1758 121.77 87.1758C121.285 87.1758 120.895 87.1719 120.598 87.1641C120.309 87.1562 119.973 87.1367 119.59 87.1055C119.207 87.0742 118.902 87.0273 118.676 86.9648C118.449 86.8945 118.203 86.8047 117.938 86.6953C117.68 86.5781 117.477 86.4336 117.328 86.2617C117.18 86.082 117.039 85.8711 116.906 85.6289C116.773 85.3867 116.68 85.1016 116.625 84.7734C116.57 84.4375 116.543 84.0586 116.543 83.6367L118.359 83.168C118.43 84.0586 118.512 84.6211 118.605 84.8555C118.746 85.1758 119.039 85.3789 119.484 85.4648C119.82 85.5352 120.527 85.5703 121.605 85.5703C122.254 85.5703 122.734 85.543 123.047 85.4883C123.367 85.4258 123.582 85.3125 123.691 85.1484C124.004 84.8906 124.16 84.0117 124.16 82.5117C124.16 82.2852 124.113 82.0938 124.02 81.9375C123.926 81.7734 123.812 81.6523 123.68 81.5742C123.547 81.4883 123.359 81.418 123.117 81.3633C122.883 81.3008 122.668 81.2617 122.473 81.2461C122.285 81.2227 122.035 81.1953 121.723 81.1641C121.41 81.1328 121.16 81.1055 120.973 81.082C120.402 81.0195 119.938 80.9609 119.578 80.9062C119.219 80.8438 118.855 80.7539 118.488 80.6367C118.121 80.5195 117.832 80.375 117.621 80.2031C117.418 80.0312 117.23 79.8086 117.059 79.5352C116.887 79.2617 116.766 78.9336 116.695 78.5508C116.625 78.168 116.59 77.7109 116.59 77.1797C116.59 76.6172 116.648 76.1406 116.766 75.75C116.883 75.3594 117.055 75.0352 117.281 74.7773C117.508 74.5195 117.816 74.3203 118.207 74.1797C118.605 74.0312 119.051 73.9297 119.543 73.875C120.035 73.8125 120.637 73.7812 121.348 73.7812C121.793 73.7812 122.156 73.7891 122.438 73.8047C122.727 73.8125 123.039 73.8398 123.375 73.8867C123.719 73.9258 123.996 73.9844 124.207 74.0625C124.418 74.1406 124.629 74.25 124.84 74.3906C125.059 74.5312 125.227 74.707 125.344 74.918C125.461 75.1211 125.555 75.3711 125.625 75.668C125.703 75.9648 125.742 76.3047 125.742 76.6875L124.172 77.168C124.141 76.8633 124.109 76.625 124.078 76.4531C124.055 76.2734 123.996 76.1094 123.902 75.9609C123.809 75.8125 123.711 75.707 123.609 75.6445C123.508 75.582 123.332 75.5273 123.082 75.4805C122.84 75.4336 122.594 75.4062 122.344 75.3984C122.094 75.3906 121.734 75.3867 121.266 75.3867C120.266 75.3867 119.586 75.4883 119.227 75.6914C118.875 75.8867 118.699 76.2109 118.699 76.6641V77.8594C118.699 78.375 118.852 78.7031 119.156 78.8438C119.469 78.9766 120.297 79.1289 121.641 79.3008C121.781 79.3242 121.887 79.3398 121.957 79.3477C122.496 79.4102 122.922 79.4688 123.234 79.5234C123.555 79.5781 123.891 79.6523 124.242 79.7461C124.594 79.832 124.859 79.9375 125.039 80.0625C125.227 80.1797 125.41 80.332 125.59 80.5195C125.777 80.707 125.91 80.9375 125.988 81.2109C126.074 81.4844 126.141 81.8008 126.188 82.1602C126.242 82.5195 126.27 82.9453 126.27 83.4375ZM134.238 85.5586C135.348 85.5352 136.117 85.4531 136.547 85.3125C136.984 85.1719 137.203 84.8945 137.203 84.4805C137.289 83.3633 137.332 82.0703 137.332 80.6016C137.332 80.1172 137.312 79.4258 137.273 78.5273C137.234 77.6211 137.215 76.9492 137.215 76.5117C137.215 76.3789 137.191 76.2578 137.145 76.1484C137.105 76.0391 137.035 75.9492 136.934 75.8789C136.84 75.8008 136.742 75.7344 136.641 75.6797C136.547 75.625 136.41 75.582 136.23 75.5508C136.059 75.5195 135.91 75.4922 135.785 75.4688C135.668 75.4453 135.496 75.4297 135.27 75.4219C135.051 75.4141 134.879 75.4102 134.754 75.4102C134.637 75.4102 134.461 75.4102 134.227 75.4102C133.992 75.4102 133.812 75.4102 133.688 75.4102C133.57 75.4102 133.398 75.4141 133.172 75.4219C132.953 75.4297 132.781 75.4453 132.656 75.4688C132.539 75.4922 132.391 75.5195 132.211 75.5508C132.039 75.582 131.902 75.625 131.801 75.6797C131.707 75.7344 131.609 75.8008 131.508 75.8789C131.414 75.9492 131.344 76.0391 131.297 76.1484C131.258 76.2578 131.238 76.3789 131.238 76.5117C131.238 76.9492 131.219 77.6211 131.18 78.5273C131.141 79.4258 131.121 80.1172 131.121 80.6016C131.121 82.0703 131.164 83.3633 131.25 84.4805C131.25 84.8945 131.477 85.1797 131.93 85.3359C132.391 85.4844 133.16 85.5586 134.238 85.5586ZM134.215 87.1758C133.348 87.1758 132.625 87.1406 132.047 87.0703C131.469 87 130.969 86.8477 130.547 86.6133C130.133 86.3711 129.816 86.1172 129.598 85.8516C129.379 85.5781 129.207 85.1523 129.082 84.5742C128.957 83.9883 128.879 83.4102 128.848 82.8398C128.824 82.2695 128.812 81.4766 128.812 80.4609C128.812 79.7031 128.82 79.0703 128.836 78.5625C128.859 78.0547 128.906 77.5586 128.977 77.0742C129.047 76.582 129.133 76.1875 129.234 75.8906C129.344 75.5859 129.496 75.3008 129.691 75.0352C129.895 74.7617 130.121 74.5547 130.371 74.4141C130.621 74.2734 130.938 74.1523 131.32 74.0508C131.711 73.9414 132.133 73.8711 132.586 73.8398C133.047 73.8008 133.594 73.7812 134.227 73.7812C134.859 73.7812 135.402 73.8008 135.855 73.8398C136.316 73.8711 136.738 73.9414 137.121 74.0508C137.512 74.1523 137.832 74.2734 138.082 74.4141C138.332 74.5547 138.555 74.7617 138.75 75.0352C138.953 75.3008 139.105 75.5859 139.207 75.8906C139.316 76.1875 139.406 76.582 139.477 77.0742C139.547 77.5586 139.59 78.0547 139.605 78.5625C139.629 79.0703 139.641 79.7031 139.641 80.4609C139.641 81.4766 139.625 82.2695 139.594 82.8398C139.57 83.4102 139.496 83.9883 139.371 84.5742C139.246 85.1523 139.07 85.5781 138.844 85.8516C138.625 86.125 138.305 86.3789 137.883 86.6133C137.469 86.8477 136.973 87 136.395 87.0703C135.816 87.1406 135.09 87.1758 134.215 87.1758ZM153.059 87H150.75V79.2188C150.75 78.7188 150.746 78.3203 150.738 78.0234C150.738 77.7188 150.723 77.4141 150.691 77.1094C150.668 76.8047 150.641 76.5781 150.609 76.4297C150.578 76.2734 150.52 76.1211 150.434 75.9727C150.355 75.8164 150.273 75.7109 150.188 75.6562C150.102 75.6016 149.977 75.5508 149.812 75.5039C149.648 75.4492 149.484 75.418 149.32 75.4102C149.156 75.4023 148.938 75.3984 148.664 75.3984C148.07 75.3984 147.562 75.4336 147.141 75.5039C146.727 75.5664 146.387 75.6562 146.121 75.7734C145.855 75.8906 145.648 76.0547 145.5 76.2656C145.359 76.4766 145.262 76.707 145.207 76.957C145.152 77.1992 145.125 77.5 145.125 77.8594C145.125 78.0625 145.137 78.418 145.16 78.9258C145.184 79.4258 145.195 79.832 145.195 80.1445V87H142.887V74.1445H144.996L145.219 75.5859C145.422 74.9453 145.871 74.4844 146.566 74.2031C147.262 73.9219 148.09 73.7812 149.051 73.7812C149.504 73.7812 149.906 73.8086 150.258 73.8633C150.609 73.918 150.922 74.0117 151.195 74.1445C151.469 74.2695 151.703 74.4141 151.898 74.5781C152.102 74.7422 152.27 74.9609 152.402 75.2344C152.543 75.5 152.656 75.7734 152.742 76.0547C152.828 76.3359 152.895 76.6875 152.941 77.1094C152.988 77.5312 153.02 77.9531 153.035 78.375C153.051 78.7891 153.059 79.2852 153.059 79.8633V87ZM166.078 87H164.25L163.875 85.1602C163.641 85.9648 163.215 86.5039 162.598 86.7773C161.988 87.043 161.094 87.1758 159.914 87.1758C159.133 87.1758 158.492 87.1016 157.992 86.9531C157.492 86.7969 157.094 86.5391 156.797 86.1797C156.5 85.8203 156.293 85.3828 156.176 84.8672C156.066 84.3438 156.012 83.6719 156.012 82.8516C156.012 82.4844 156.074 82.1562 156.199 81.8672C156.332 81.5781 156.508 81.332 156.727 81.1289C156.953 80.9258 157.25 80.75 157.617 80.6016C157.992 80.4531 158.379 80.3359 158.777 80.25C159.176 80.1641 159.656 80.0977 160.219 80.0508C160.789 79.9961 161.344 79.9609 161.883 79.9453C162.422 79.9297 163.051 79.9219 163.77 79.9219V76.4414C163.77 76.043 163.582 75.7695 163.207 75.6211C162.832 75.4648 162.164 75.3867 161.203 75.3867C160.531 75.3867 160.027 75.4023 159.691 75.4336C159.355 75.4648 159.098 75.5586 158.918 75.7148C158.746 75.8633 158.645 76.0117 158.613 76.1602C158.59 76.3086 158.574 76.5859 158.566 76.9922C158.559 77.1406 158.555 77.2578 158.555 77.3438L156.762 77.2734C156.746 77.1484 156.738 76.9648 156.738 76.7227C156.738 76.1992 156.812 75.7578 156.961 75.3984C157.117 75.0312 157.316 74.7461 157.559 74.543C157.801 74.332 158.133 74.168 158.555 74.0508C158.977 73.9336 159.395 73.8594 159.809 73.8281C160.223 73.7969 160.738 73.7812 161.355 73.7812C162.293 73.7812 163.055 73.8555 163.641 74.0039C164.227 74.1445 164.707 74.4023 165.082 74.7773C165.457 75.1523 165.715 75.6328 165.855 76.2188C166.004 76.7969 166.078 77.5547 166.078 78.4922V87ZM163.77 83.3203V81.3164C162.23 81.3164 161.047 81.375 160.219 81.4922C159.391 81.6094 158.836 81.7734 158.555 81.9844C158.281 82.1875 158.145 82.4766 158.145 82.8516C158.145 82.8672 158.145 82.8906 158.145 82.9219C158.145 84.1094 158.242 84.8477 158.438 85.1367C158.633 85.4258 159.23 85.5703 160.23 85.5703C161.082 85.5703 161.773 85.4688 162.305 85.2656C162.836 85.0625 163.203 84.8047 163.406 84.4922C163.617 84.1719 163.738 83.7812 163.77 83.3203ZM172.043 87H169.734V69.5859L172.043 69.3984V87ZM192.844 81.9727C192.836 82.4648 192.816 82.8984 192.785 83.2734C192.762 83.6406 192.719 83.9883 192.656 84.3164C192.594 84.6445 192.527 84.9219 192.457 85.1484C192.387 85.375 192.273 85.5898 192.117 85.793C191.969 85.9883 191.824 86.1484 191.684 86.2734C191.543 86.3906 191.34 86.5 191.074 86.6016C190.816 86.6953 190.566 86.7656 190.324 86.8125C190.082 86.8594 189.758 86.8984 189.352 86.9297C188.953 86.9609 188.566 86.9805 188.191 86.9883C187.824 86.9961 187.359 87 186.797 87H180.539V69.5391H187.172C188.055 69.5391 188.785 69.5859 189.363 69.6797C189.949 69.7656 190.465 69.9258 190.91 70.1602C191.363 70.3945 191.691 70.7266 191.895 71.1562C192.098 71.5859 192.203 72.1328 192.211 72.7969L192.223 74.0625C192.223 74.5938 192.203 75.0273 192.164 75.3633C192.125 75.6992 192.055 76.0039 191.953 76.2773C191.859 76.5508 191.715 76.7656 191.52 76.9219C191.324 77.0781 191.086 77.2109 190.805 77.3203C190.531 77.4219 190.176 77.5117 189.738 77.5898C190.27 77.6445 190.727 77.7617 191.109 77.9414C191.492 78.1211 191.793 78.3359 192.012 78.5859C192.238 78.8359 192.414 79.1523 192.539 79.5352C192.664 79.918 192.746 80.293 192.785 80.6602C192.824 81.0273 192.844 81.4648 192.844 81.9727ZM189.902 73.5586C189.902 73.543 189.902 73.5195 189.902 73.4883C189.902 73.1602 189.902 72.9297 189.902 72.7969C189.902 72.6562 189.879 72.4883 189.832 72.293C189.793 72.0898 189.75 71.957 189.703 71.8945C189.664 71.832 189.566 71.75 189.41 71.6484C189.262 71.5391 189.113 71.4766 188.965 71.4609C188.816 71.4375 188.582 71.4102 188.262 71.3789C187.949 71.3398 187.637 71.3203 187.324 71.3203C187.012 71.3203 186.586 71.3203 186.047 71.3203H182.895V76.9219H185.25C186.273 76.9219 187.102 76.8945 187.734 76.8398C188.367 76.7773 188.836 76.6758 189.141 76.5352C189.453 76.3867 189.656 76.2305 189.75 76.0664C189.852 75.9023 189.902 75.6836 189.902 75.4102V73.5586ZM190.523 81.4102C190.508 80.4805 190.473 79.8945 190.418 79.6523C190.309 79.2227 190.039 78.9297 189.609 78.7734C189.078 78.5703 187.891 78.4648 186.047 78.457C185.922 78.457 185.785 78.457 185.637 78.457H182.895V85.2305H187.371C188.277 85.2305 188.961 85.1562 189.422 85.0078C189.883 84.8516 190.188 84.6211 190.336 84.3164C190.484 84.0117 190.555 83.5625 190.547 82.9688L190.523 81.4102ZM198.27 87H195.961V69.5859L198.27 69.3984V87ZM207.012 85.5586C208.121 85.5352 208.891 85.4531 209.32 85.3125C209.758 85.1719 209.977 84.8945 209.977 84.4805C210.062 83.3633 210.105 82.0703 210.105 80.6016C210.105 80.1172 210.086 79.4258 210.047 78.5273C210.008 77.6211 209.988 76.9492 209.988 76.5117C209.988 76.3789 209.965 76.2578 209.918 76.1484C209.879 76.0391 209.809 75.9492 209.707 75.8789C209.613 75.8008 209.516 75.7344 209.414 75.6797C209.32 75.625 209.184 75.582 209.004 75.5508C208.832 75.5195 208.684 75.4922 208.559 75.4688C208.441 75.4453 208.27 75.4297 208.043 75.4219C207.824 75.4141 207.652 75.4102 207.527 75.4102C207.41 75.4102 207.234 75.4102 207 75.4102C206.766 75.4102 206.586 75.4102 206.461 75.4102C206.344 75.4102 206.172 75.4141 205.945 75.4219C205.727 75.4297 205.555 75.4453 205.43 75.4688C205.312 75.4922 205.164 75.5195 204.984 75.5508C204.812 75.582 204.676 75.625 204.574 75.6797C204.48 75.7344 204.383 75.8008 204.281 75.8789C204.188 75.9492 204.117 76.0391 204.07 76.1484C204.031 76.2578 204.012 76.3789 204.012 76.5117C204.012 76.9492 203.992 77.6211 203.953 78.5273C203.914 79.4258 203.895 80.1172 203.895 80.6016C203.895 82.0703 203.938 83.3633 204.023 84.4805C204.023 84.8945 204.25 85.1797 204.703 85.3359C205.164 85.4844 205.934 85.5586 207.012 85.5586ZM206.988 87.1758C206.121 87.1758 205.398 87.1406 204.82 87.0703C204.242 87 203.742 86.8477 203.32 86.6133C202.906 86.3711 202.59 86.1172 202.371 85.8516C202.152 85.5781 201.98 85.1523 201.855 84.5742C201.73 83.9883 201.652 83.4102 201.621 82.8398C201.598 82.2695 201.586 81.4766 201.586 80.4609C201.586 79.7031 201.594 79.0703 201.609 78.5625C201.633 78.0547 201.68 77.5586 201.75 77.0742C201.82 76.582 201.906 76.1875 202.008 75.8906C202.117 75.5859 202.27 75.3008 202.465 75.0352C202.668 74.7617 202.895 74.5547 203.145 74.4141C203.395 74.2734 203.711 74.1523 204.094 74.0508C204.484 73.9414 204.906 73.8711 205.359 73.8398C205.82 73.8008 206.367 73.7812 207 73.7812C207.633 73.7812 208.176 73.8008 208.629 73.8398C209.09 73.8711 209.512 73.9414 209.895 74.0508C210.285 74.1523 210.605 74.2734 210.855 74.4141C211.105 74.5547 211.328 74.7617 211.523 75.0352C211.727 75.3008 211.879 75.5859 211.98 75.8906C212.09 76.1875 212.18 76.582 212.25 77.0742C212.32 77.5586 212.363 78.0547 212.379 78.5625C212.402 79.0703 212.414 79.7031 212.414 80.4609C212.414 81.4766 212.398 82.2695 212.367 82.8398C212.344 83.4102 212.27 83.9883 212.145 84.5742C212.02 85.1523 211.844 85.5781 211.617 85.8516C211.398 86.125 211.078 86.3789 210.656 86.6133C210.242 86.8477 209.746 87 209.168 87.0703C208.59 87.1406 207.863 87.1758 206.988 87.1758ZM225.797 74.1445V85.3711C225.797 86.1445 225.77 86.7969 225.715 87.3281C225.668 87.8594 225.574 88.3555 225.434 88.8164C225.301 89.2773 225.117 89.6445 224.883 89.918C224.648 90.1992 224.336 90.4414 223.945 90.6445C223.562 90.8477 223.109 90.9883 222.586 91.0664C222.062 91.1445 221.434 91.1836 220.699 91.1836C219.168 91.1836 217.949 91.0234 217.043 90.7031L217.195 89.1094C218.07 89.3516 219.109 89.4727 220.312 89.4727C220.883 89.4727 221.363 89.4414 221.754 89.3789C222.152 89.3164 222.461 89.2383 222.68 89.1445C222.906 89.0508 223.078 88.9141 223.195 88.7344C223.32 88.5625 223.398 88.3906 223.43 88.2188C223.469 88.0469 223.488 87.8281 223.488 87.5625L223.477 85.4648C223.266 86.0117 222.902 86.4102 222.387 86.6602C221.871 86.9102 221.145 87.0352 220.207 87.0352C219.535 87.0352 218.949 86.9883 218.449 86.8945C217.949 86.8008 217.523 86.6836 217.172 86.543C216.82 86.4023 216.527 86.1836 216.293 85.8867C216.066 85.582 215.887 85.2969 215.754 85.0312C215.621 84.7578 215.523 84.3711 215.461 83.8711C215.398 83.3633 215.359 82.9102 215.344 82.5117C215.328 82.1055 215.32 81.5547 215.32 80.8594C215.32 79.9766 215.328 79.2852 215.344 78.7852C215.359 78.2852 215.395 77.7461 215.449 77.168C215.504 76.582 215.594 76.1406 215.719 75.8438C215.844 75.5469 216.004 75.2461 216.199 74.9414C216.402 74.6289 216.664 74.4062 216.984 74.2734C217.305 74.1406 217.68 74.0312 218.109 73.9453C218.547 73.8594 219.066 73.8164 219.668 73.8164C220.691 73.8164 221.512 73.957 222.129 74.2383C222.746 74.5117 223.195 74.957 223.477 75.5742L223.699 74.1445H225.797ZM223.488 84.3867V77.2383C223.488 76.582 223.27 76.1133 222.832 75.832C222.402 75.543 221.629 75.3984 220.512 75.3984C219.418 75.3984 218.668 75.4961 218.262 75.6914C217.824 75.9023 217.605 76.7578 217.605 78.2578C217.605 80.5156 217.637 82.4844 217.699 84.1641C217.723 84.5312 217.816 84.8008 217.98 84.9727C218.152 85.1445 218.441 85.2656 218.848 85.3359C219.254 85.3984 219.891 85.4297 220.758 85.4297C222.5 85.4297 223.41 85.082 223.488 84.3867Z" fill="#3294F8"/>
<defs>
<clipPath id="clip0_406_119">
<rect width="45" height="40" fill="white" transform="translate(91.5)"/>
</clipPath>
</defs>
</svg>
